<?xml version="1.0" encoding="UTF-8"?>
<svg id="Capa_2" data-name="Capa 2" xmlns="http://www.w3.org/2000/svg" viewBox="0 0 312.8 68.17">
  <defs>
    <style>
      .cls-1 {
        fill: #cd1327;
      }

      .cls-1, .cls-2, .cls-3, .cls-4, .cls-5, .cls-6, .cls-7, .cls-8, .cls-9 {
        stroke-width: 0px;
      }

      .cls-2 {
        fill: #1d3e87;
      }

      .cls-3 {
        fill: #d7d6d6;
      }

      .cls-4 {
        fill: #fcd118;
      }

      .cls-5 {
        fill: #fff;
      }

      .cls-6 {
        fill: #1d4293;
      }

      .cls-7 {
        fill: #d42d1e;
      }

      .cls-8 {
        fill: #d71125;
      }

      .cls-9 {
        fill: #d10e47;
      }
    </style>
  </defs>
  <g id="Capa_2-2" data-name="Capa_2">
    <g>
      <rect class="cls-3" x="249.83" y="52.44" width="19.26" height="12.84"/>
      <rect class="cls-3" x="249.83" y="52.44" width="19.26" height="12.84"/>
      <rect class="cls-3" x="272.14" y="52.49" width="19.26" height="12.84"/>
      <rect class="cls-3" x="272.14" y="52.49" width="19.26" height="12.84"/>
      <rect class="cls-3" x="293.54" y="52.49" width="19.26" height="12.84"/>
      <rect class="cls-3" x="293.54" y="52.49" width="19.26" height="12.84"/>
      <g>
        <path class="cls-6" d="M256.5,52.94h-5.92v5.92h5.92v-5.92ZM253.53,56.47l-.87.63.33-1.02-.88-.64h1.09l.33-1.02.33,1.02h1.06l-.86.63.33,1.03-.88-.63Z"/>
        <polygon class="cls-5" points="254.93 55.44 253.87 55.44 253.54 54.42 253.2 55.44 252.11 55.44 252.99 56.08 252.66 57.1 253.53 56.47 254.4 57.1 254.07 56.07 254.93 55.44"/>
        <rect class="cls-5" x="256.5" y="52.94" width="11.84" height="5.92"/>
        <rect class="cls-7" x="250.58" y="58.86" width="17.76" height="5.92"/>
      </g>
      <g>
        <path class="cls-6" d="M256.5,52.94h-5.92v5.92h5.92v-5.92ZM253.53,56.47l-.87.63.33-1.02-.88-.64h1.09l.33-1.02.33,1.02h1.06l-.86.63.33,1.03-.88-.63Z"/>
        <polygon class="cls-5" points="254.93 55.44 253.87 55.44 253.54 54.42 253.2 55.44 252.11 55.44 252.99 56.08 252.66 57.1 253.53 56.47 254.4 57.1 254.07 56.07 254.93 55.44"/>
        <rect class="cls-5" x="256.5" y="52.94" width="11.84" height="5.92"/>
        <rect class="cls-7" x="250.58" y="58.86" width="17.76" height="5.92"/>
      </g>
      <g>
        <rect class="cls-8" x="273.16" y="53.01" width="5.8" height="11.6"/>
        <rect class="cls-8" x="284.77" y="53.01" width="5.8" height="11.6"/>
        <rect class="cls-5" x="278.96" y="53.01" width="5.8" height="11.6"/>
      </g>
      <g>
        <rect class="cls-8" x="273.16" y="53.01" width="5.8" height="11.6"/>
        <rect class="cls-8" x="284.77" y="53.01" width="5.8" height="11.6"/>
        <rect class="cls-5" x="278.96" y="53.01" width="5.8" height="11.6"/>
      </g>
      <g>
        <rect class="cls-1" x="294.51" y="61.68" width="17.21" height="2.87"/>
        <rect class="cls-2" x="294.51" y="58.81" width="17.21" height="2.87"/>
        <rect class="cls-4" x="294.51" y="53.07" width="17.21" height="5.74"/>
      </g>
      <g>
        <rect class="cls-1" x="294.51" y="61.68" width="17.21" height="2.87"/>
        <rect class="cls-2" x="294.51" y="58.81" width="17.21" height="2.87"/>
        <rect class="cls-4" x="294.51" y="53.07" width="17.21" height="5.74"/>
      </g>
      <path class="cls-9" d="M122.63,22.74h-19.71v22.73h19.84c2.92-.37,8.46-3.09,8.46-10.82,0-10.76-8.51-11.9-8.59-11.91h0ZM122.47,42.41h-16.48v-16.63h16.37c.72.12,5.82,1.19,5.82,8.86,0,6.54-4.81,7.61-5.7,7.76h0Z"/>
      <rect class="cls-9" x="133.2" y="22.9" width="3.05" height="22.65"/>
      <path class="cls-9" d="M153.55,28.46c-6.9.11-11.86-3.99-11.91-4.03l-2.52-2.14v23.26h3.05v-17.08c2.42,1.39,6.44,3.11,11.41,3.05,4.73-.06,8.34-1.62,10.57-2.95v16.98h3.05v-23.52l-2.58,2.46s-4.15,3.87-11.09,3.97h0Z"/>
      <polygon class="cls-9" points="172.97 32.25 173.53 32.25 173.53 25.76 193.48 25.76 193.48 22.71 170.48 22.71 170.48 45.65 193.48 45.65 193.48 42.6 173.53 42.6 173.53 35.11 172.97 35.11 172.97 32.25"/>
      <rect class="cls-9" x="173.53" y="32.25" width="20.03" height="2.85"/>
      <rect class="cls-9" x="172.97" y="32.25" width=".56" height="2.85"/>
      <path class="cls-9" d="M217.89,38.12c-2.1-2.3-5.13-5.43-8.05-7.78-3.55-2.86-10.75-6.57-11.06-6.73l-2.23-1.15v23.09h3.05v-18.04c2.4,1.32,6.16,3.47,8.31,5.2,4.85,3.9,10.27,10.37,10.32,10.44l2.7,3.23v-23.81h-3.05v15.54h0Z"/>
      <path class="cls-9" d="M307.8,22.58v15.54c-2.1-2.3-5.13-5.43-8.05-7.78-3.55-2.86-10.75-6.57-11.06-6.73l-2.23-1.15v23.09h3.05v-18.04c2.4,1.32,6.16,3.47,8.31,5.2,4.85,3.9,10.27,10.37,10.32,10.44l2.7,3.23v-23.81h-3.05,0Z"/>
      <path class="cls-9" d="M243.73,32.8h-15.12c-.35-.03-2.53-.27-2.53-3.55,0-2.96,2.36-3.41,2.94-3.48h17.39v-3.05h-17.59c-2,.16-5.8,1.74-5.8,6.54,0,5.07,3.6,6.54,5.49,6.61h15.01c.29.04,1.99.42,1.99,3.55,0,2.81-2.03,3.15-2.69,3.19h-19.39v3.05h19.47c2.28-.05,5.67-1.76,5.67-6.24,0-4.92-3.17-6.47-4.85-6.61h0Z"/>
      <rect class="cls-9" x="250.24" y="23" width="3.05" height="22.59"/>
      <path class="cls-9" d="M275.52,21.92c-1.01-.17-4.68-.19-5.78-.19-3.17,0-5.06.07-5.6.21-1.41.36-8.42,2.63-8.42,11.91,0,8.43,6.13,11.36,8.49,11.77.75.13,2.08.2,3.97.2h0c.69,0,1.2,0,1.32,0h.71c1.88,0,4.34-.04,5.36-.18,1.83-.27,8.67-3,8.67-11.45,0-8.51-5.49-11.71-8.73-12.26h0ZM275.13,42.61c-.63.09-2.47.15-4.92.15h-.75s-.54,0-1.27,0h0c-1.64,0-2.89-.05-3.45-.15-.06,0-5.96-1.38-5.96-8.76,0-6.8,4.61-8.56,6.08-8.94.33-.04,1.9-.12,4.87-.12s4.87.07,5.27.14c.25.04,6.19,1.15,6.18,9.24,0,6.98-6,8.42-6.06,8.43h0Z"/>
      <path class="cls-5" d="M47.15.86L1.74,15.18l45.54,35.34,44.59-34.45L47.15.86ZM64.72,33.01l-9.9,7.59-8.46-5.44,6.47-5.32c1.18-1.05,1.51-1.78,1.51-1.78v-10.11c.08-1.73-2.31-2.69-2.31-2.69-3-1.45-7.57-1.38-7.57-1.38-4.22-.07-12.06,2.94-12.06,2.94v9.36l-11.71-7.53c7.46-3,10.86-3.8,10.86-3.8,7.4-2.07,12.58-2.18,12.58-2.18,8.29-.45,14.88,1.84,14.88,1.84,6.59,1.82,9.32,4.12,9.32,4.12,5.46,4.09,4.23,8.29,4.23,8.29-.85.77-7.85,6.08-7.85,6.08h0Z"/>
      <polygon class="cls-9" points=".05 26.18 .05 14.91 47.39 50.92 93.56 15.75 93.56 26.1 47.25 68.17 .05 26.18"/>
      <path class="cls-9" d="M20.4,18.76l-7.59-4.71s10.01-3.92,18.35-5.5c8.34-1.59,11.36-1.67,16.11-1.5,4.75.19,13.88,2,19.88,4.94,6,2.94,7.26,6.01,7.63,7.69.37,1.67.28,5.55-1.07,6.76l-1.35,1.21s.98-2.19-.42-4.94-4.43-5.41-9.91-7.28c-5.49-1.86-10.39-2.94-16.32-2.84-5.93.09-11.33,1.4-15.47,2.61-4.14,1.21-9.82,3.54-9.82,3.54h0Z"/>
      <path class="cls-9" d="M32.41,17.07v9.32l13.64,8.99s2.98-2.33,5.08-4.05c2.09-1.73,2.99-2.77,3.22-3.29v-10.3s.25,1.61-3.37,3.65c-3.6,2.02-4.75,2.69-4.75,2.69l-13.83-7.03Z"/>
      <path class="cls-9" d="M47.28,51.55L0,14.87,47.16,0l.12.04,46.29,15.74-46.3,35.77h0ZM1.74,15.18l45.54,35.34,44.59-34.45L47.15.86,1.74,15.18Z"/>
      <path class="cls-9" d="M54.86,41.59l-.24-.15L11.92,13.96l.75-.29c.1-.04,10.14-3.95,18.42-5.52,6.09-1.16,9.54-1.57,13.17-1.57.86,0,1.8.02,3.03.07,5.16.2,14.29,2.16,20.04,4.99,4.53,2.22,7.17,4.9,7.86,7.97.39,1.77.33,5.79-1.19,7.15l-1.35,1.21-17.77,13.62h0ZM13.72,14.15l41.1,26.44,17.29-13.25,1.33-1.19c1.2-1.08,1.29-4.78.94-6.37-.62-2.81-3.12-5.32-7.42-7.41-5.66-2.77-14.64-4.7-19.72-4.9-1.22-.04-2.15-.07-3-.07-3.07,0-6.18.26-13.02,1.56-6.89,1.31-15.03,4.26-17.52,5.19h.02Z"/>
      <path class="cls-9" d="M45.95,24.29l-13.63-6.96.12-.23-.1-.25c.31-.12,7.72-2.97,12.14-2.97h.09c4.62.04,7.58,1.16,8.79,2.19,1.13.95,1.29,2.01.5,3.25-.58.9-2.24,2.11-4.54,3.33-2.26,1.19-3.23,1.59-3.27,1.61l-.09.04h0ZM32.8,17.11l13.17,6.72c.28-.12,1.28-.57,3.15-1.56,2.22-1.17,3.86-2.36,4.39-3.19.69-1.05.55-1.89-.42-2.71-1.17-.99-4.02-2.05-8.53-2.09h-.09c-3.84,0-10.21,2.27-11.68,2.82Z"/>
    </g>
  </g>
</svg>